<svg width="124" height="33" viewBox="0 0 124 33" fill="none" xmlns="http://www.w3.org/2000/svg">
<path d="M12.3408 10.6387L20.7956 24.7891H3.88608L12.3408 10.6387Z" fill="white"/>
<path d="M26.381 17.877L19.4462 6.44144L33.3159 6.44144L26.381 17.877Z" fill="white"/>
<path d="M109.948 16.4604C109.948 15.1517 110.243 13.9997 110.833 13.0043C111.441 12.009 112.262 11.2348 113.294 10.6818C114.326 10.1104 115.496 9.82471 116.805 9.82471C118.114 9.82471 119.275 10.1104 120.289 10.6818C121.321 11.2348 122.141 12.009 122.75 13.0043C123.358 13.9997 123.662 15.1517 123.662 16.4604C123.662 17.7507 123.358 18.9027 122.75 19.9165C122.141 20.9119 121.321 21.6953 120.289 22.2667C119.275 22.8197 118.114 23.0961 116.805 23.0961C115.496 23.0961 114.326 22.8197 113.294 22.2667C112.262 21.6953 111.441 20.9119 110.833 19.9165C110.243 18.9027 109.948 17.7507 109.948 16.4604ZM113.017 16.4604C113.017 17.253 113.183 17.9535 113.515 18.5617C113.847 19.1516 114.298 19.6216 114.87 19.9718C115.441 20.3036 116.086 20.4695 116.805 20.4695C117.506 20.4695 118.142 20.3036 118.713 19.9718C119.303 19.6216 119.764 19.1516 120.095 18.5617C120.427 17.9535 120.593 17.253 120.593 16.4604C120.593 15.6678 120.427 14.9674 120.095 14.3591C119.764 13.7508 119.303 13.2808 118.713 12.949C118.142 12.6172 117.506 12.4513 116.805 12.4513C116.086 12.4513 115.441 12.6172 114.87 12.949C114.298 13.2808 113.847 13.7508 113.515 14.3591C113.183 14.9674 113.017 15.6678 113.017 16.4604Z" fill="white"/>
<path d="M96.2607 10.1021H99.5233L102.841 18.3138L106.159 10.1021H109.449L102.841 23.9818L96.2607 10.1021Z" fill="white"/>
<path d="M82.0557 16.4604C82.0557 15.1517 82.3506 13.9997 82.9404 13.0043C83.5487 12.009 84.369 11.2348 85.4012 10.6818C86.4334 10.1104 87.6039 9.82471 88.9126 9.82471C90.2213 9.82471 91.3826 10.1104 92.3964 10.6818C93.4286 11.2348 94.2488 12.009 94.8571 13.0043C95.4654 13.9997 95.7695 15.1517 95.7695 16.4604C95.7695 17.7507 95.4654 18.9027 94.8571 19.9165C94.2488 20.9119 93.4286 21.6953 92.3964 22.2667C91.3826 22.8197 90.2213 23.0961 88.9126 23.0961C87.6039 23.0961 86.4334 22.8197 85.4012 22.2667C84.369 21.6953 83.5487 20.9119 82.9404 19.9165C82.3506 18.9027 82.0557 17.7507 82.0557 16.4604ZM85.1247 16.4604C85.1247 17.253 85.2906 17.9535 85.6224 18.5617C85.9542 19.1516 86.4058 19.6216 86.9772 19.9718C87.5486 20.3036 88.1937 20.4695 88.9126 20.4695C89.613 20.4695 90.249 20.3036 90.8204 19.9718C91.4102 19.6216 91.871 19.1516 92.2028 18.5617C92.5346 17.9535 92.7005 17.253 92.7005 16.4604C92.7005 15.6678 92.5346 14.9674 92.2028 14.3591C91.871 13.7508 91.4102 13.2808 90.8204 12.949C90.249 12.6172 89.613 12.4513 88.9126 12.4513C88.1937 12.4513 87.5486 12.6172 86.9772 12.949C86.4058 13.2808 85.9542 13.7508 85.6224 14.3591C85.2906 14.9674 85.1247 15.6678 85.1247 16.4604Z" fill="white"/>
<path d="M76.1401 15.078C76.1401 14.1379 75.9466 13.4283 75.5595 12.949C75.1724 12.4698 74.5734 12.2302 73.7623 12.2302C73.2093 12.2302 72.7209 12.35 72.2969 12.5896C71.873 12.8108 71.5412 13.1426 71.3016 13.5849C71.0619 14.0089 70.9421 14.5066 70.9421 15.078V22.8197H67.9561V10.1012H70.9421V12.0643C71.3477 11.3085 71.8638 10.7463 72.4905 10.3777C73.1356 10.009 73.9006 9.82471 74.7853 9.82471C76.2231 9.82471 77.3198 10.2671 78.0756 11.1519C78.8313 12.0182 79.2092 13.2163 79.2092 14.7462V22.8197H76.1401V15.078Z" fill="white"/>
<path d="M56.8093 18.6447C57.2148 19.0871 57.6203 19.4741 58.0258 19.8059C58.4498 20.1193 58.8737 20.3589 59.2977 20.5248C59.7216 20.6723 60.1456 20.746 60.5695 20.746C61.1041 20.746 61.5188 20.6262 61.8137 20.3866C62.1271 20.1469 62.2837 19.8151 62.2837 19.3912C62.2837 19.0225 62.1639 18.7092 61.9243 18.4511C61.6847 18.1747 61.3529 17.9442 60.9289 17.7599C60.505 17.5572 60.0073 17.3544 59.4359 17.1516C58.8645 16.9305 58.2931 16.6724 57.7217 16.3775C57.1687 16.0641 56.7079 15.6586 56.3392 15.1609C55.989 14.6633 55.8139 14.0365 55.8139 13.2808C55.8139 12.5066 56.0074 11.8615 56.3945 11.3454C56.8 10.8293 57.3346 10.4514 57.9982 10.2118C58.6802 9.95373 59.4083 9.82471 60.1824 9.82471C60.8829 9.82471 61.5372 9.92609 62.1455 10.1288C62.7722 10.3316 63.3344 10.5989 63.8321 10.9307C64.3298 11.2624 64.7537 11.6403 65.1039 12.0643L63.445 13.8338C63.0211 13.3361 62.5142 12.9306 61.9243 12.6172C61.3345 12.3039 60.7262 12.1472 60.0995 12.1472C59.6755 12.1472 59.3253 12.2394 59.0488 12.4237C58.7723 12.608 58.6341 12.8753 58.6341 13.2255C58.6341 13.5204 58.7539 13.7877 58.9935 14.0273C59.2516 14.2485 59.5834 14.4513 59.9889 14.6356C60.4128 14.8199 60.8829 15.0135 61.399 15.2162C62.0994 15.4927 62.7446 15.7969 63.3344 16.1286C63.9242 16.4604 64.3943 16.8659 64.7445 17.3452C65.1132 17.8244 65.2975 18.4511 65.2975 19.2253C65.2975 20.4234 64.8827 21.3911 64.0533 22.1284C63.2422 22.8473 62.1363 23.2067 60.7354 23.2067C59.8691 23.2067 59.0673 23.0777 58.33 22.8197C57.6111 22.5432 56.9752 22.1929 56.4222 21.769C55.8876 21.3266 55.436 20.8658 55.0674 20.3866L56.8093 18.6447Z" fill="white"/>
<path d="M39.6865 16.4604C39.6865 15.1517 39.9814 13.9997 40.5713 13.0043C41.1796 12.009 41.9998 11.2348 43.032 10.6818C44.0643 10.1104 45.2347 9.82471 46.5435 9.82471C47.8522 9.82471 49.0134 10.1104 50.0272 10.6818C51.0594 11.2348 51.8797 12.009 52.488 13.0043C53.0962 13.9997 53.4004 15.1517 53.4004 16.4604C53.4004 17.7507 53.0962 18.9027 52.488 19.9165C51.8797 20.9119 51.0594 21.6953 50.0272 22.2667C49.0134 22.8197 47.8522 23.0961 46.5435 23.0961C45.2347 23.0961 44.0643 22.8197 43.032 22.2667C41.9998 21.6953 41.1796 20.9119 40.5713 19.9165C39.9814 18.9027 39.6865 17.7507 39.6865 16.4604ZM42.7556 16.4604C42.7556 17.253 42.9214 17.9535 43.2532 18.5617C43.585 19.1516 44.0366 19.6216 44.608 19.9718C45.1794 20.3036 45.8246 20.4695 46.5435 20.4695C47.2439 20.4695 47.8798 20.3036 48.4512 19.9718C49.0411 19.6216 49.5019 19.1516 49.8337 18.5617C50.1655 17.9535 50.3314 17.253 50.3314 16.4604C50.3314 15.6678 50.1655 14.9674 49.8337 14.3591C49.5019 13.7508 49.0411 13.2808 48.4512 12.949C47.8798 12.6172 47.2439 12.4513 46.5435 12.4513C45.8246 12.4513 45.1794 12.6172 44.608 12.949C44.0366 13.2808 43.585 13.7508 43.2532 14.3591C42.9214 14.9674 42.7556 15.6678 42.7556 16.4604Z" fill="white"/>
</svg>
